# xmcd
#
# Track frame offsets:
#	150
#	16395
#	30062
#	44044
#	55494
#	72993
#	86211
#	97361
#	108526
#	123577
#	136702
#	151612
#
# Disc length: 2197 seconds
#
# Revision: 0
# Processed by: cddbd v1.5.2PL0 Copyright (c) Steve Scherf et al.
# Submitted via: dBpowerAMP V4.0
#
DISCID=a208930c
DTITLE=Matt Schwartz - Sing Me Back Home
DYEAR=2000
DGENRE=Country
TTITLE0=Pick Me Up On Your Way Down
TTITLE1=My Heart's Ready
TTITLE2=Sing Me Back Home
TTITLE3=I'll Fly Away
TTITLE4=God Loves Country Music
TTITLE5=What do You Know About Love
TTITLE6=Every Second
TTITLE7=Above and Beyond
TTITLE8=Sleepin' On the Foldout
TTITLE9=Heartaches By The Number
TTITLE10=Adalida
TTITLE11=Chimebells
EXTD=
EXTT0=
EXTT1=
EXTT2=
EXTT3=
EXTT4=
EXTT5=
EXTT6=
EXTT7=
EXTT8=
EXTT9=
EXTT10=
EXTT11=
PLAYORDER=
